<?xml version="1.0" encoding="utf-8"?>
<!-- Generator: Adobe Illustrator 21.1.0, SVG Export Plug-In . SVG Version: 6.00 Build 0)  -->
<svg version="1.1" id="Capa_1" xmlns="http://www.w3.org/2000/svg" xmlns:xlink="http://www.w3.org/1999/xlink" x="0px" y="0px"
	 viewBox="0 0 80 80" style="enable-background:new 0 0 80 80;" xml:space="preserve">
<style type="text/css">
	.st0{fill:#333333;}
	.st1{fill:#E18D7C;}
	.st2{fill:#8DC4BE;}
	.st3{fill:#E3E3E3;}
</style>
<title>cash</title>
<desc>Created with Sketch.</desc>
<g>
	<path class="st0" d="M40,80C17.9,80,0,62.1,0,40C0,17.9,17.9,0,40,0c1.6,0,3.2,0.1,4.8,0.3c0.3,0,0.5,0.3,0.4,0.6
		c0,0.3-0.3,0.5-0.6,0.4C43.1,1.1,41.5,1,40,1C18.5,1,1,18.5,1,40s17.5,39,39,39s39-17.5,39-39c0-10.8-4.6-21.3-12.5-28.6
		c-0.2-0.2-0.2-0.5,0-0.7c0.2-0.2,0.5-0.2,0.7,0C75.3,18.2,80,28.9,80,40C80,62.1,62.1,80,40,80z"/>
</g>
<g>
	<path class="st0" d="M49,77.1L49,77.1c-0.3,0-0.5-0.2-0.5-0.5l0-6.3c0-0.3,0.2-0.5,0.5-0.5h0c0.3,0,0.5,0.2,0.5,0.5l0,6.3
		C49.5,76.9,49.2,77.1,49,77.1z"/>
</g>
<path class="st0" d="M73.7,58.3c-1-8.1-1.4-13.4-1.6-16.3c-0.1-1.3-0.1-2-0.2-2.4c-0.4-2.4-2.2-10.4-11.3-11.8
	c-0.3,0-0.5,0.1-0.6,0.4c0,0.3,0.1,0.5,0.4,0.6c8.2,1.2,10,8.1,10.5,10.9c0.1,0.4,0.1,1.2,0.2,2.4c0.2,2.8,0.6,8.1,1.6,16.1
	c-1.4,1.2-5,2.6-5.8,2.9c-0.8-0.4-1.4-0.7-1.4-0.7c0,0-1.3-0.5-1.3-1.7c-0.1-1.5,0-3.1,0-3.1c0,0,0,0,0-0.1c0.6-0.4,1.2-0.8,1.7-1.3
	c2.1-2,3.2-4.8,3.1-8c0,0,0-0.2,0-0.2c0-0.6,0-2.6-1.7-3.9l-0.1-0.1c-1.5-1.2-4.7-3.6-12.3-4.5c-0.3,0-0.5,0.2-0.6,0.4
	c0,0.3,0.2,0.5,0.4,0.6c7.3,0.8,10.3,3.1,11.8,4.3l0.1,0.1c1.3,1,1.3,2.6,1.3,3c0,0.1,0,0.2,0,0.3c0,2.9-0.9,5.4-2.8,7.2
	c-2,2-4.7,2.8-6.4,2.7c-1.7,0.1-4.4-0.7-6.4-2.7c-1.9-1.9-2.9-4.4-2.8-7.5c0,0-0.1-0.7,0.6-1.1c1.2-0.6,3-2.4,3.3-3.9
	c0-0.3-0.1-0.5-0.4-0.6c-0.3,0-0.5,0.1-0.6,0.4c-0.2,1.2-1.8,2.8-2.8,3.2c-1.3,0.6-1.2,2-1.2,2c-0.1,4.1,1.6,6.7,3.1,8.1
	c0.6,0.5,1.1,1,1.8,1.4c0,0,0,0.1,0,0.1c0,0,0.1,1.6,0,3.1c-0.1,1.2-1.3,1.7-1.3,1.7c0,0-0.6,0.3-1.4,0.6c-0.9-0.3-4.4-1.7-5.8-2.9
	c1-8,1.4-13.3,1.6-16.1c0.1-1.2,0.1-2,0.2-2.4c0.3-2.2,1.4-6.4,5.2-9c0.2-0.2,0.3-0.5,0.1-0.7c-0.2-0.2-0.5-0.3-0.7-0.1
	c-4.1,2.8-5.3,7.2-5.6,9.6c-0.1,0.4-0.1,1.2-0.2,2.4c-0.2,2.9-0.6,8.2-1.6,16.3c0,0.2,0,0.3,0.2,0.4c1.1,1,3.9,2.2,5.4,2.9
	c-2,0.9-4.6,2.1-5.6,2.5c-2,0.8-2.2,3.1-2.2,3.3v10.3c0,0.3,0.2,0.5,0.5,0.5s0.5-0.2,0.5-0.5l0-10.3c0-0.1,0.1-1.8,1.5-2.4
	c1.8-0.7,8-3.7,8.3-3.8c0.1,0,1.9-0.7,2-2.6c0-1.1,0-2.1,0-2.7c1.5,0.7,3,1.1,4.2,1.1c0.1,0,0.2,0,0.2,0c0.1,0,0.1,0,0.2,0
	c1.2,0,2.7-0.3,4.1-1.1c0,0.6,0,1.7,0,2.7c0.1,1.9,1.9,2.6,1.9,2.6c0.1,0.1,2.8,1.4,4.5,2.1c0.1,0,0.1,0,0.2,0
	c0.2,0,0.4-0.1,0.5-0.3c0.1-0.3,0-0.5-0.3-0.7c-0.6-0.2-1.2-0.5-1.9-0.8c1.5-0.6,4.3-1.8,5.5-2.9C73.6,58.7,73.7,58.5,73.7,58.3z"/>
<path class="st1" d="M66.3,63.3c-0.2-0.2-0.5-0.1-0.7,0.1c-2.8,3.6-6.9,3.6-6.9,3.6c0,0,0,0,0,0c0,0,0,0,0,0c0,0,0,0,0,0
	c0,0-4.3,0-7.1-3.9c-0.2-0.2-0.5-0.3-0.7-0.1c-0.2,0.2-0.3,0.5-0.1,0.7c3,4.2,7.4,4.3,7.9,4.3c0,0,0,0,0,0c0,0,0,0,0,0c0,0,0,0,0,0
	c0.5,0,4.6-0.1,7.6-4C66.5,63.8,66.5,63.4,66.3,63.3z"/>
<g>
	<path class="st0" d="M28.7,76.1c-0.3,0-0.5-0.2-0.5-0.5v-5.2c0-0.3,0.2-0.5,0.5-0.5s0.5,0.2,0.5,0.5v5.2
		C29.2,75.9,28.9,76.1,28.7,76.1z"/>
</g>
<path class="st0" d="M33.9,67.8c0-0.9-0.4-2.7-2.2-3.3c-1.5-0.5-4.1-1.4-5.1-1.8l0.1-0.1c0.1-0.2,0.1-0.5-0.1-0.7l-1.4-1.3v-2.9
	c0.3-0.2,0.5-0.5,0.8-0.7c1.8-1.9,2.6-4.6,2.4-8.1c0.2-0.4,0.7-1.6,0.8-3.3c0.1-2,0-8.3,0-8.5c0-0.3-0.2-0.5-0.5-0.5h-4
	c-0.3,0-0.5,0.2-0.5,0.5s0.2,0.5,0.5,0.5h3.5c0,1.6,0.1,6.4,0,8c-0.1,1.8-0.7,3-0.7,3c0,0.1-0.1,0.2-0.1,0.3
	c0.2,3.2-0.5,5.7-2.1,7.5c-2.2,2.3-5.3,2.4-5.3,2.4c-0.1,0-3.1-0.1-5.3-2.4c-1.6-1.7-2.3-4.2-2.1-7.5c0-0.1,0-0.2-0.1-0.3
	c0,0-0.7-1.2-0.7-3c-0.1-1.9,0-2.5,0-2.5c0,0,0.4-3.3,2.9-4.8c0.2-0.1,0.3-0.4,0.2-0.7c-0.1-0.2-0.4-0.3-0.7-0.2
	c-2.9,1.7-3.4,5.4-3.4,5.5c0,0.1-0.1,0.7,0,2.7c0.1,1.7,0.6,2.9,0.8,3.3c-0.2,3.5,0.6,6.2,2.4,8.1c0.3,0.3,0.5,0.5,0.8,0.7v2.9
	l-1.4,1.3c-0.2,0.2-0.2,0.5-0.1,0.7l0.1,0.1l-2.3,0.7c-0.3,0.1-0.4,0.4-0.3,0.6c0.1,0.2,0.3,0.3,0.5,0.3c0.1,0,0.1,0,0.2,0l2.6-0.8
	l2.6,3.7c0.1,0.1,0.2,0.2,0.4,0.2c0,0,0,0,0,0c0.1,0,0.3-0.1,0.4-0.1l2.6-2.6l2.6,2.6c0.1,0.1,0.2,0.1,0.4,0.1c0,0,0,0,0,0
	c0.1,0,0.3-0.1,0.4-0.2l2.6-3.7c0.6,0.2,3.7,1.3,5.4,1.9c1.5,0.5,1.5,2.3,1.5,2.4v9.4c0,0.3,0.2,0.5,0.5,0.5s0.5-0.2,0.5-0.5
	L33.9,67.8z M20,59.6C20,59.6,20,59.6,20,59.6c0.1,0,2.2,0,4.2-1.3v2.2L20,63.3l-4.2-2.8v-2.2C17.9,59.6,19.9,59.6,20,59.6z
	 M17.1,66.2l-2.7-3.8l1-0.9l3.9,2.6L17.1,66.2z M22.9,66.1L20.8,64l3.9-2.6l1,0.9L22.9,66.1z"/>
<g>
	<path class="st2" d="M14.5,47.3c-0.3,0-0.5-0.2-0.5-0.5v-2.2c0-0.2,0.1-0.4,0.4-0.5c0.3-0.1,7.3-2,11.4,1.5
		c0.2,0.2,0.2,0.5,0.1,0.7c-0.2,0.2-0.5,0.2-0.7,0.1c-3.2-2.8-8.6-1.7-10.1-1.4v1.9C15,47.1,14.7,47.3,14.5,47.3z"/>
</g>
<g>
	<path class="st3" d="M57,33v-6.5h2.8c0.2,0,0.4,0,0.6,0c1-0.2,3.7-0.9,3.7-3.8V7.4c0-0.3,0-0.6-0.1-0.9c-0.2-1-1.1-3.1-4-3.1
		c-3.9,0-17.9,0-24.5,0c-2.3,0-3.8,0.9-3.8,3.9V22c0,0.1,0,0.3,0,0.4c0.1,0.9,0.7,3.9,3.4,3.9c3.1,0,14.4,0,14.4,0L57,33z"/>
	<path class="st0" d="M57,33.5c-0.1,0-0.2,0-0.3-0.1l-7.4-6.6H35.1c-2.5,0-3.6-2.2-3.9-4.3c0-0.2,0-0.3,0-0.5V7.3
		c0-2.9,1.4-4.4,4.3-4.4H60c3.3,0,4.3,2.4,4.5,3.5c0.1,0.3,0.1,0.6,0.1,1v15.3c0,3.3-3.1,4.1-4.1,4.3c-0.3,0-0.5,0.1-0.7,0.1h-2.3v6
		c0,0.2-0.1,0.4-0.3,0.5C57.2,33.5,57.1,33.5,57,33.5z M35.5,3.9c-2.4,0-3.3,1-3.3,3.4V22c0,0.1,0,0.2,0,0.4
		c0.1,0.8,0.6,3.5,2.9,3.5h14.4c0.1,0,0.2,0,0.3,0.1l6.7,6v-5.4c0-0.3,0.2-0.5,0.5-0.5h2.8c0.2,0,0.4,0,0.6,0c1-0.2,3.2-0.8,3.2-3.3
		V7.4c0-0.3,0-0.5-0.1-0.8c-0.2-1-1-2.7-3.6-2.7H35.5z"/>
</g>
<g>
	<path class="st0" d="M16.9,41.2c-0.1,0-0.1,0-0.2,0c-0.2-0.1-0.3-0.2-0.3-0.4v-5.3h-2c-0.3,0-0.6,0-1-0.1c-1-0.2-3.4-1-3.4-3.8
		V17.9c0-0.3,0-0.6,0.1-0.9c0.2-0.9,1.1-3.1,4.1-3.1h14.2c0.2,0,0.4,0.2,0.4,0.4s-0.2,0.4-0.4,0.4H14.3c-2.3,0-3,1.5-3.2,2.4
		c0,0.2-0.1,0.4-0.1,0.7v13.7c0,2,1.7,2.7,2.7,2.9c0.2,0.1,0.5,0.1,0.8,0.1h2.4c0.2,0,0.4,0.2,0.4,0.4v4.8l6-5.4
		c0.1-0.1,0.2-0.1,0.3-0.1h12.9c1.9,0,2.4-2.1,2.6-3c0-0.2,0-0.3,0-0.4v-1.6c0-0.2,0.2-0.4,0.4-0.4S40,29,40,29.2v1.6
		c0,0.2,0,0.4,0,0.6c-0.1,0.9-0.8,3.8-3.4,3.8H23.9l-6.6,5.9C17.2,41.2,17,41.2,16.9,41.2z"/>
</g>
<g>
	<circle class="st0" cx="52.6" cy="14.5" r="0.5"/>
</g>
<g>
	<circle class="st0" cx="47.6" cy="14.5" r="0.5"/>
</g>
<g>
	<circle class="st0" cx="42.6" cy="14.5" r="0.5"/>
</g>
</svg>
