<?xml version="1.0" encoding="utf-8"?>
<!-- Generator: Adobe Illustrator 21.1.0, SVG Export Plug-In . SVG Version: 6.00 Build 0)  -->
<svg version="1.1" id="Capa_1" xmlns="http://www.w3.org/2000/svg" xmlns:xlink="http://www.w3.org/1999/xlink" x="0px" y="0px"
	 viewBox="0 0 80 80" style="enable-background:new 0 0 80 80;" xml:space="preserve">
<style type="text/css">
	.st0{fill:#333333;}
	.st1{fill:#96C8C2;}
</style>
<title>cash</title>
<desc>Created with Sketch.</desc>
<g>
	<path class="st0" d="M37.5,65.94c-0.13,0-0.26-0.05-0.36-0.15c-0.19-0.2-0.19-0.51,0.01-0.71l2.46-2.4
		c0.2-0.19,0.51-0.19,0.71,0.01c0.19,0.2,0.19,0.51-0.01,0.71l-2.46,2.4C37.75,65.89,37.63,65.94,37.5,65.94z"/>
</g>
<g>
	<path class="st0" d="M34.79,59.51c-0.27,0-0.5-0.22-0.5-0.5s0.22-0.5,0.5-0.5l3.44-0.02c0.24-0.02,0.5,0.22,0.5,0.5
		s-0.22,0.5-0.5,0.5L34.79,59.51L34.79,59.51z"/>
</g>
<g>
	<path class="st0" d="M39.95,55.59c-0.13,0-0.25-0.05-0.35-0.14l-2.44-2.42c-0.2-0.2-0.2-0.51,0-0.71c0.2-0.19,0.51-0.2,0.71,0
		l2.44,2.42c0.2,0.2,0.2,0.51,0,0.71C40.21,55.54,40.08,55.59,39.95,55.59z"/>
</g>
<g>
	<path class="st0" d="M44.06,53.9c-0.27,0-0.5-0.22-0.5-0.49l-0.06-3.44c0-0.28,0.21-0.5,0.49-0.51c0.27-0.02,0.5,0.21,0.51,0.49
		l0.06,3.44C44.56,53.67,44.34,53.9,44.06,53.9C44.07,53.9,44.06,53.9,44.06,53.9z"/>
</g>
<g>
	<path class="st0" d="M47.87,55.62c-0.12,0-0.25-0.05-0.35-0.14c-0.2-0.19-0.21-0.51-0.01-0.71l2.39-2.48
		c0.19-0.2,0.51-0.2,0.71-0.01c0.2,0.19,0.21,0.51,0.01,0.71l-2.39,2.48C48.13,55.57,48,55.62,47.87,55.62z"/>
</g>
<g>
	<path class="st0" d="M78.06,53.32H53.31c-0.28,0-0.5-0.22-0.5-0.5s0.22-0.5,0.5-0.5h24.75c0.54,0,1-0.46,1-1V28.79
		c0-0.55-0.45-1-1-1H1.94c-0.55,0-1,0.45-1,1v22.53c0,0.55,0.45,1,1,1h32.85c0.28,0,0.5,0.22,0.5,0.5s-0.22,0.5-0.5,0.5H1.94
		c-1.1,0-2-0.9-2-2V28.79c0-1.1,0.9-2,2-2h76.12c1.1,0,2,0.9,2,2v22.53C80.06,52.42,79.16,53.32,78.06,53.32z"/>
</g>
<g>
	<path class="st0" d="M79.06,80c-0.24,0-0.45-0.17-0.49-0.42c-0.77-4.62-6.34-13.43-6.4-13.51c-0.04-0.07-1.05-1.59-2.51-0.94
		c-1.46,0.66-0.88,2.53-0.86,2.61c0.08,0.25-0.04,0.51-0.28,0.61s-0.52,0-0.64-0.23l-0.8-1.53c-0.76-1.45-2.29-1.92-3.99-1.22
		c-1.68,0.7-0.89,3.38-0.88,3.41c0.07,0.24-0.05,0.5-0.28,0.61c-0.24,0.1-0.51,0.01-0.63-0.21c0,0-0.32-0.56-0.75-1.27
		c-0.32-0.53-1.3-1.68-3.5-0.88c-1.92,0.7-1.06,3.32-1.02,3.43c0.08,0.23-0.02,0.49-0.24,0.6c-0.22,0.12-0.49,0.05-0.63-0.14
		c-0.37-0.5-9.03-12.13-9.71-13.08c-0.48-0.67-1.37-1.3-2.84-0.46c-1.22,0.71-0.55,2.51-0.54,2.53l10.81,17.18
		c0.15,0.23,0.08,0.54-0.16,0.69c-0.23,0.15-0.54,0.08-0.69-0.16L41.17,60.35c-0.39-0.99-0.62-2.93,0.93-3.84
		c1.61-0.92,3.16-0.64,4.16,0.74c0.52,0.74,6.1,8.23,8.55,11.53c0.07-1.09,0.54-2.2,1.89-2.69c2.04-0.74,3.51-0.13,4.34,0.82
		c0.11-1,0.55-1.99,1.67-2.45c2.07-0.86,4.04-0.31,5.09,1.4c0.2-0.65,0.62-1.27,1.44-1.63c1.81-0.81,3.25,0.51,3.77,1.32
		c0.23,0.37,5.73,9.06,6.54,13.88c0.05,0.27-0.14,0.53-0.41,0.58C79.12,80,79.09,80,79.06,80z"/>
</g>
<g>
	<path class="st0" d="M75.15,23.35c-0.19,0-0.36-0.1-0.45-0.28C68.23,9.66,54.44,1,39.56,1C24.52,1,11.07,9.4,4.48,22.93
		c-0.12,0.25-0.42,0.35-0.67,0.23s-0.35-0.42-0.23-0.67C10.34,8.62,24.13,0,39.56,0c15.26,0,29.4,8.88,36.04,22.63
		c0.12,0.25,0.02,0.55-0.23,0.67C75.3,23.33,75.22,23.35,75.15,23.35z"/>
</g>
<g>
	<path class="st0" d="M39.56,80C24.25,80,10.51,71.47,3.7,57.74c-0.12-0.25-0.02-0.55,0.23-0.67s0.55-0.02,0.67,0.23
		C11.23,70.68,24.63,79,39.56,79c0.28,0,0.5,0.22,0.5,0.5S39.84,80,39.56,80z"/>
</g>
<g>
	<path class="st1" d="M3.14,30.75v18.56h73.73V30.75H3.14z M9.05,37.75c0.13,0.35,0.37,0.59,0.71,0.73l3.74,1.23
		c0.07,0.02,2.39,0.68,2.39,2.73c0,1.6-1.42,2.7-3.62,2.81c-0.11,0.01-0.22,0.01-0.32,0.01c-1.86,0-3.39-0.8-4.14-2.19
		c-0.13-0.24-0.04-0.55,0.2-0.68s0.55-0.04,0.68,0.2c0.61,1.12,1.93,1.73,3.54,1.66c1.29-0.06,2.66-0.58,2.66-1.82
		c0-1.29-1.67-1.77-1.68-1.78L9.43,39.4c-0.63-0.24-1.07-0.69-1.31-1.31c-0.32-0.83-0.18-1.76,0.1-2.3c0.4-0.78,1.16-1.84,3.15-1.88
		c2-0.04,3.3,0.43,4.39,1.6c0.19,0.2,0.18,0.52-0.02,0.71s-0.52,0.18-0.71-0.02c-0.9-0.96-1.92-1.32-3.63-1.28
		c-1.43,0.03-1.94,0.66-2.29,1.34C8.93,36.61,8.85,37.23,9.05,37.75z M19.5,44.87c0,0.28-0.22,0.5-0.5,0.5s-0.5-0.22-0.5-0.5V34.41
		c0-0.28,0.22-0.5,0.5-0.5s0.5,0.22,0.5,0.5V44.87z M27.41,44.26c1.66,0,2.85-0.42,3.72-1.31v-2.46c0-0.28,0.22-0.5,0.5-0.5
		c0.28,0,0.5,0.22,0.5,0.5l0,2.41c0,0.28-0.1,0.56-0.29,0.76c-1.06,1.08-2.51,1.61-4.43,1.61c-2.05,0-5.01-1.97-5.01-5.52
		c0-3.6,2.64-5.54,5.13-5.54c2.23,0,4.3,1.39,4.39,1.45c0.23,0.15,0.29,0.46,0.13,0.69c-0.15,0.23-0.46,0.29-0.69,0.13
		c-0.02-0.01-1.91-1.27-3.83-1.27c-2,0-4.13,1.59-4.13,4.54C23.4,42.89,26.06,44.26,27.41,44.26z M44.62,44.76
		c0,0.21-0.13,0.4-0.33,0.47c-0.06,0.02-0.12,0.03-0.17,0.03c-0.14,0-0.28-0.06-0.38-0.18l-7.37-8.66v8.33c0,0.28-0.22,0.5-0.5,0.5
		c-0.28,0-0.5-0.22-0.5-0.5v-9.69c0-0.21,0.13-0.4,0.33-0.47c0.2-0.07,0.42-0.01,0.55,0.15l7.37,8.66v-8.7c0-0.28,0.22-0.5,0.5-0.5
		c0.28,0,0.5,0.22,0.5,0.5V44.76z M61.5,41.08c0,3.17-2.35,4.83-4.67,4.83c-2.32,0-4.67-1.66-4.67-4.83V34.5
		c0-0.28,0.22-0.5,0.5-0.5s0.5,0.22,0.5,0.5v6.58c0,2.63,1.9,3.83,3.67,3.83c1.77,0,3.67-1.2,3.67-3.83V34.5
		c0-0.28,0.22-0.5,0.5-0.5s0.5,0.22,0.5,0.5V41.08z M70.03,40.56h-4.2v4.86c0,0.28-0.22,0.5-0.5,0.5s-0.5-0.22-0.5-0.5V34.5
		c0-0.28,0.22-0.5,0.5-0.5h4.7c2.33,0,3.55,1.65,3.55,3.28C73.58,38.91,72.36,40.56,70.03,40.56z"/>
	<path class="st1" d="M70.03,35h-4.2v4.56h4.2c1.75,0,2.55-1.18,2.55-2.28C72.58,36.18,71.79,35,70.03,35z"/>
</g>
</svg>
