<?xml version="1.0" encoding="utf-8"?>
<!-- Generator: Adobe Illustrator 21.1.0, SVG Export Plug-In . SVG Version: 6.00 Build 0)  -->
<svg version="1.1" id="Capa_1" xmlns="http://www.w3.org/2000/svg" xmlns:xlink="http://www.w3.org/1999/xlink" x="0px" y="0px"
	 viewBox="0 0 80 80" style="enable-background:new 0 0 80 80;" xml:space="preserve">
<style type="text/css">
	.st0{fill:#E3E3E3;}
	.st1{fill:#333333;}
	.st2{fill:none;stroke:#333333;stroke-linecap:round;stroke-linejoin:round;}
	.st3{fill:#E49182;}
	.st4{fill:#96C8C3;}
</style>
<title>cash</title>
<desc>Created with Sketch.</desc>
<g>
	<path class="st0" d="M15.4,61.2c0,0-0.8-6.8,0-6.8s44.3,0,44.3,0C42.1,64.7,16.4,63.1,15.4,61.2z"/>
</g>
<g>
	<path class="st1" d="M39.8,72.6c-8.6,0-16.7-3.3-22.8-9.3c-0.2-0.2-0.2-0.5,0-0.7c0.2-0.2,0.5-0.2,0.7,0c6,5.8,13.8,9,22.2,9
		c0.3,0,0.5,0.2,0.5,0.5S40.1,72.6,39.8,72.6z"/>
</g>
<g>
	<path class="st2" d="M46.7,54.4"/>
</g>
<g>
	<path class="st2" d="M29.4,54.4"/>
</g>
<path class="st1" d="M24.6,53.9H13.8c-0.3,0-0.5,0.2-0.5,0.5s0.2,0.5,0.5,0.5h1.1v6.3c0,0.3,0.2,0.5,0.5,0.5s0.5-0.2,0.5-0.5v-6.3
	h8.7c0.3,0,0.5-0.2,0.5-0.5S24.9,53.9,24.6,53.9z"/>
<path class="st1" d="M55.8,11.1h-32c-3.5,0-6.3,2.8-6.3,6.3V38c0,0.3,0.2,0.5,0.5,0.5c0,0,0,0,0,0s0,0,0,0h37.5
	c0.3,0,0.5-0.2,0.5-0.5s-0.2-0.5-0.5-0.5h-37V17.4c0-2.9,2.4-5.3,5.3-5.3h32c2.9,0,5.3,2.4,5.3,5.3v23.3c0,2.9-2.4,5.3-5.3,5.3h-32
	c-2.9,0-5.3-2.4-5.3-5.3c0-0.3-0.2-0.5-0.5-0.5s-0.5,0.2-0.5,0.5c0,3.5,2.8,6.3,6.3,6.3h13.6l-1.6,7.3c-0.1,0.3,0.1,0.5,0.4,0.6
	c0,0,0.1,0,0.1,0c0.2,0,0.4-0.2,0.5-0.4l1.7-7.5h3.1l1.6,7.5c0.1,0.2,0.3,0.4,0.5,0.4c0,0,0.1,0,0.1,0c0.3-0.1,0.4-0.3,0.4-0.6
	L42.6,47h13.2c3.5,0,6.3-2.8,6.3-6.3V17.4C62,13.9,59.2,11.1,55.8,11.1z"/>
<g>
	<circle class="st3" cx="39.8" cy="42.2" r="1.7"/>
</g>
<g>
	<path class="st0" d="M23,20.6v-2.4c0-0.8,0.7-1.5,1.5-1.5h30.3c0.8,0,1.5,0.7,1.5,1.5v2.4H23z"/>
</g>
<path class="st1" d="M54.9,16.2H24.5c-1.1,0-2,0.9-2,2v14.2c0,1.1,0.9,2,2,2h30.3c1.1,0,2-0.9,2-2V18.2C56.9,17.1,56,16.2,54.9,16.2
	z M24.5,17.2h30.3c0.6,0,1,0.4,1,1v1.9H23.5v-1.9C23.5,17.6,24,17.2,24.5,17.2z M54.9,33.3H24.5c-0.6,0-1-0.4-1-1V21.1h32.3v11.2
	C55.9,32.9,55.4,33.3,54.9,33.3z"/>
<g>
	<circle class="st3" cx="53.8" cy="18.6" r="1"/>
</g>
<g>
	<circle class="st4" cx="50.8" cy="18.6" r="1"/>
</g>
<g>
	<path class="st1" d="M34.5,24.8c-0.2-0.1-0.5,0-0.7,0.2l-1.4,2.8L31.9,27l0.6-1.1c0.1-0.2,0-0.5-0.2-0.7c-0.2-0.1-0.5,0-0.7,0.2
		L31.3,26L31,25.5c-0.1-0.2-0.4-0.3-0.7-0.2C30,25.4,30,25.8,30.1,26l0.7,1.1l-0.4,0.8L28.7,25c-0.1-0.2-0.4-0.3-0.7-0.2
		c-0.2,0.1-0.3,0.4-0.2,0.7l2.2,3.6c0.1,0.2,0.3,0.2,0.4,0.2c0,0,0,0,0,0c0.2,0,0.3-0.1,0.4-0.3l0.5-1l0.6,1
		c0.1,0.2,0.3,0.2,0.4,0.2c0,0,0,0,0,0c0.2,0,0.3-0.1,0.4-0.3l1.8-3.6C34.8,25.2,34.7,24.9,34.5,24.8z"/>
	<path class="st1" d="M43,24.8c-0.2-0.1-0.5,0-0.7,0.2l-1.4,2.8L40.4,27l0.6-1.1c0.1-0.2,0-0.5-0.2-0.7c-0.2-0.1-0.5,0-0.7,0.2
		L39.8,26l-0.3-0.5c-0.1-0.2-0.4-0.3-0.7-0.2c-0.2,0.1-0.3,0.4-0.2,0.7l0.7,1.1l-0.4,0.8L37.2,25c-0.1-0.2-0.4-0.3-0.7-0.2
		c-0.2,0.1-0.3,0.4-0.2,0.7l2.2,3.6c0.1,0.2,0.3,0.2,0.4,0.2c0,0,0,0,0,0c0.2,0,0.3-0.1,0.4-0.3l0.5-1l0.6,1
		c0.1,0.2,0.3,0.2,0.4,0.2c0,0,0,0,0,0c0.2,0,0.3-0.1,0.4-0.3l1.8-3.6C43.4,25.2,43.3,24.9,43,24.8z"/>
	<path class="st1" d="M51.7,24.8c-0.2-0.1-0.5,0-0.7,0.2l-1.4,2.8L49.1,27l0.6-1.1c0.1-0.2,0-0.5-0.2-0.7c-0.2-0.1-0.5,0-0.7,0.2
		L48.5,26l-0.3-0.6c-0.1-0.2-0.5-0.3-0.7-0.2c-0.2,0.1-0.3,0.4-0.2,0.7l0.7,1.1l-0.4,0.8L45.9,25c-0.1-0.2-0.5-0.3-0.7-0.2
		C45,25,44.9,25.3,45,25.5l2.2,3.6c0.1,0.2,0.3,0.2,0.4,0.2c0,0,0,0,0,0c0.2,0,0.3-0.1,0.4-0.3l0.5-1l0.6,1c0.1,0.2,0.3,0.2,0.4,0.2
		c0,0,0,0,0,0c0.2,0,0.3-0.1,0.4-0.3l1.8-3.6C52,25.2,51.9,24.9,51.7,24.8z"/>
</g>
<g>
	<path class="st1" d="M40,80C17.9,80,0,62.1,0,40C0,17.9,17.9,0,40,0c22.1,0,40,17.9,40,40C80,62.1,62.1,80,40,80z M40,1
		C18.5,1,1,18.5,1,40s17.5,39,39,39s39-17.5,39-39S61.5,1,40,1z"/>
</g>
<path class="st1" d="M65.2,53.9H29.6c-0.3,0-0.5,0.2-0.5,0.5s0.2,0.5,0.5,0.5H63v6.6c0,0.3,0.2,0.5,0.5,0.5s0.5-0.2,0.5-0.5v-6.6
	h1.3c0.3,0,0.5-0.2,0.5-0.5S65.5,53.9,65.2,53.9z"/>
</svg>
